<?xml version="1.0" encoding="UTF-8"?>
<svg width="520" height="140" viewBox="0 0 520 140" xmlns="http://www.w3.org/2000/svg" role="img" aria-label="Bela-Bela Institute logo">
  <defs>
    <linearGradient id="crimson" x1="0" y1="0" x2="1" y2="1">
      <stop offset="0" stop-color="#a51c30"/>
      <stop offset="1" stop-color="#7f1524"/>
    </linearGradient>
    <linearGradient id="gold" x1="0" y1="0" x2="1" y2="0">
      <stop offset="0" stop-color="#d4a24c"/>
      <stop offset="1" stop-color="#f1c36e"/>
    </linearGradient>
  </defs>

  <!-- Shield -->
  <g transform="translate(12,12)">
    <path d="M56 0h64a8 8 0 0 1 8 8v40c0 34-20 54-40 66-20-12-40-32-40-66V8a8 8 0 0 1 8-8z" fill="url(#crimson)" stroke="#111827" stroke-width="2"/>
    <path d="M56 10h64v30c0 26-14 41-32 53-18-12-32-27-32-53V10z" fill="#ffffff" opacity="0.08"/>
    <path d="M56 10h64v6H56z" fill="url(#gold)"/>
    <text x="88" y="66" text-anchor="middle" font-family="Crimson Text, Georgia, serif" font-size="36" font-weight="700" fill="#f8fafc">BB</text>
    <path d="M60 92h56" stroke="url(#gold)" stroke-width="3" stroke-linecap="round"/>
    <text x="88" y="114" text-anchor="middle" font-family="Source Sans 3, Arial, sans-serif" font-size="10" font-weight="700" letter-spacing="2" fill="#f8fafc">INSTITUTE</text>
  </g>

  <!-- Wordmark -->
  <g transform="translate(150,36)">
    <text x="0" y="34" font-family="Crimson Text, Georgia, serif" font-size="36" font-weight="700" fill="#111827">Bela-Bela Institute</text>
    <text x="0" y="64" font-family="Source Sans 3, Arial, sans-serif" font-size="14" font-weight="600" letter-spacing="2" fill="#6b7280">OF HIGHER LEARNING</text>
    <rect x="0" y="76" width="190" height="4" rx="2" fill="url(#gold)"/>
  </g>
</svg>
